<svg width="34" height="34" viewBox="0 0 34 34" fill="none" xmlns="http://www.w3.org/2000/svg">
    <path
        d="M17.1236 26.283C16.6085 26.283 16.2273 25.8709 15.8667 25.4794L9.00485 18.1127C8.26303 17.0824 7.85091 15.9182 7.78909 14.6921C7.78909 14.0945 7.90242 13.4867 8.12909 12.7964C8.45879 12.1267 8.79879 11.6115 9.18 11.1685C9.63333 10.7048 10.1382 10.3545 10.7976 10.0248C11.457 9.73636 12.1061 9.59212 12.7448 9.59212C14.2903 9.59212 15.7018 10.2103 17.0412 11.4673C18.2055 10.4679 19.5139 9.59212 21.2861 9.59212C21.9248 9.59212 22.5739 9.73636 23.2127 10.0145C23.9236 10.3339 24.4594 10.7048 24.8509 11.1685C25.2836 11.5291 25.6648 12.1164 25.8915 12.7964C26.1079 13.2188 26.2315 13.8576 26.2315 14.6612C26.2933 15.8152 25.8915 17 25.0467 18.0715L18.3909 25.4691C18.0303 25.8606 17.6491 26.2727 17.1339 26.2727L17.1236 26.283ZM12.7345 10.8285C12.2709 10.8285 11.7867 10.9315 11.3127 11.1479C10.8079 11.4055 10.4061 11.6733 10.0764 12.0133C9.79818 12.343 9.5097 12.7758 9.26242 13.2806C9.10788 13.7648 9.01515 14.2388 9.01515 14.6715C9.06667 15.6297 9.39636 16.557 9.95273 17.34L16.7733 24.6448C16.8455 24.717 17.0103 24.9024 17.1236 25.0055C17.237 24.9024 17.4018 24.7273 17.4739 24.6552L24.0885 17.2988C24.5212 16.7527 25.0467 15.8255 24.9848 14.7127C24.9848 14.0739 24.9024 13.6103 24.7376 13.2806C24.5521 12.7345 24.2945 12.3327 23.9648 12.0545C23.6248 11.663 23.2436 11.4055 22.6976 11.1582C22.2236 10.9521 21.7497 10.8388 21.2758 10.8388C19.72 10.8388 18.5661 11.7558 17.4224 12.7861L16.9794 13.1879L16.5673 12.7552C15.3309 11.457 14.1152 10.8491 12.7448 10.8491L12.7345 10.8285Z"
        fill="#757575" />
    <path
        d="M17 1.23636C25.6958 1.23636 32.7636 8.30424 32.7636 17C32.7636 25.6958 25.6958 32.7636 17 32.7636C8.30424 32.7636 1.23636 25.6958 1.23636 17C1.23636 8.30424 8.30424 1.23636 17 1.23636ZM17 0C7.61394 0 0 7.61394 0 17C0 26.3861 7.61394 34 17 34C26.3861 34 34 26.3861 34 17C34 7.61394 26.3861 0 17 0Z"
        fill="#757575" />
</svg>