<svg width="27" height="26" viewBox="0 0 27 26" fill="none" xmlns="http://www.w3.org/2000/svg">
<path d="M13.0083 0C5.8403 0 0.00830078 5.832 0.00830078 13C0.00830078 20.168 5.8403 26 13.0083 26C20.1763 26 26.0083 20.168 26.0083 13C26.0083 5.832 20.1763 0 13.0083 0ZM9.67432 4H16.3403C19.4653 4 22.0083 6.54202 22.0083 9.66602V16.332C22.0083 19.457 19.4663 22 16.3423 22H9.67627C6.55127 22 4.0083 19.458 4.0083 16.334V9.66797C4.0083 6.54297 6.55032 4 9.67432 4ZM9.67432 6C7.65332 6 6.0083 7.64597 6.0083 9.66797V16.334C6.0083 18.355 7.65427 20 9.67627 20H16.3423C18.3633 20 20.0083 18.354 20.0083 16.332V9.66602C20.0083 7.64502 18.3623 6 16.3403 6H9.67432ZM17.6763 7.66602C18.0443 7.66602 18.3423 7.96403 18.3423 8.33203C18.3423 8.70003 18.0443 9 17.6763 9C17.3083 9 17.0083 8.70003 17.0083 8.33203C17.0083 7.96403 17.3083 7.66602 17.6763 7.66602ZM13.0083 8C15.7653 8 18.0083 10.243 18.0083 13C18.0083 15.757 15.7653 18 13.0083 18C10.2513 18 8.0083 15.757 8.0083 13C8.0083 10.243 10.2513 8 13.0083 8ZM13.0083 10C12.2127 10 11.4496 10.3161 10.887 10.8787C10.3244 11.4413 10.0083 12.2044 10.0083 13C10.0083 13.7956 10.3244 14.5587 10.887 15.1213C11.4496 15.6839 12.2127 16 13.0083 16C13.804 16 14.567 15.6839 15.1296 15.1213C15.6922 14.5587 16.0083 13.7956 16.0083 13C16.0083 12.2044 15.6922 11.4413 15.1296 10.8787C14.567 10.3161 13.804 10 13.0083 10V10Z" fill="#535353"/>
</svg>
