<svg width="22" height="22" viewBox="0 0 22 22" fill="none" xmlns="http://www.w3.org/2000/svg">
<rect x="0.5" y="0.5" width="21" height="21" rx="10.5" fill="white"/>
<path fill-rule="evenodd" clip-rule="evenodd" d="M16.1977 6.7606L11.4989 12.6134L8.35311 9.82712L9.25725 8.80632L11.3316 10.6436L15.1343 5.90692L16.1977 6.7606Z" fill="#757575"/>
<path fill-rule="evenodd" clip-rule="evenodd" d="M7.24978 6.22723C7.0615 6.22723 6.90887 6.37986 6.90887 6.56814V14.75C6.90887 14.9382 7.0615 15.0909 7.24978 15.0909H15.4316C15.6199 15.0909 15.7725 14.9382 15.7725 14.75V10.659H16.4543V14.75C16.4543 15.3148 15.9964 15.7727 15.4316 15.7727H7.24978C6.68494 15.7727 6.22705 15.3148 6.22705 14.75V6.56814C6.22705 6.0033 6.68494 5.54541 7.24978 5.54541H11.4697V6.22723H7.24978Z" fill="#757575"/>
<rect x="0.5" y="0.5" width="21" height="21" rx="10.5" stroke="#757575"/>
</svg>
