<svg viewBox="0 0 34 34" fill="none" xmlns="http://www.w3.org/2000/svg">
<rect x="0.5" y="0.5" width="33" height="33" rx="16.5" fill="white"/>
<path fill-rule="evenodd" clip-rule="evenodd" d="M8.34149 11.5H22.7192C24.0204 11.5 24.9751 12.7228 24.6595 13.9851L23.4095 18.9851C23.1869 19.8754 22.387 20.5 21.4692 20.5H14.2974C13.5557 20.5 12.8748 20.0895 12.5286 19.4335L8.34149 11.5ZM10 12.5L13.413 18.9668C13.5861 19.2947 13.9265 19.5 14.2974 19.5H21.4692C21.9281 19.5 22.3281 19.1877 22.4394 18.7425L23.6894 13.7425C23.8472 13.1114 23.3698 12.5 22.7192 12.5H10Z" fill="currentcolor"/>
<path d="M7 11.5C7 10.9477 7.44772 10.5 8 10.5H11C11.5523 10.5 12 10.9477 12 11.5C12 12.0523 11.5523 12.5 11 12.5H8C7.44772 12.5 7 12.0523 7 11.5Z" fill="currentcolor"/>
<path d="M16.2694 23.5119C16.2694 24.5834 15.4008 25.452 14.3293 25.452C13.2578 25.452 12.3892 24.5834 12.3892 23.5119C12.3892 22.4404 13.2578 21.5718 14.3293 21.5718C15.4008 21.5718 16.2694 22.4404 16.2694 23.5119Z" fill="currentcolor"/>
<path d="M24.0298 23.5119C24.0298 24.5834 23.1612 25.452 22.0897 25.452C21.0182 25.452 20.1495 24.5834 20.1495 23.5119C20.1495 22.4404 21.0182 21.5718 22.0897 21.5718C23.1612 21.5718 24.0298 22.4404 24.0298 23.5119Z" fill="currentcolor"/>
<rect x="0.5" y="0.5" width="33" height="33" rx="16.5" stroke="currentcolor"/>
</svg>
