<svg width="123" height="30" viewBox="0 0 123 30" fill="none" xmlns="http://www.w3.org/2000/svg">
<path d="M41.3889 1.19614H39.8155V5.61359C39.8155 5.84752 39.7145 5.9645 39.5163 5.9645C39.3182 5.9645 39.2172 5.84752 39.2172 5.61359V1.19614H37.6631C37.43 1.19614 37.3135 1.10257 37.3135 0.903726C37.3135 0.704883 37.43 0.603516 37.6631 0.603516H41.3889C41.6221 0.603516 41.7386 0.704883 41.7386 0.903726C41.7386 1.10257 41.6065 1.19614 41.3889 1.19614Z" fill="#535353"/>
<path d="M50.0415 5.87465C50.0206 5.90115 49.994 5.92261 49.9638 5.93745C49.9335 5.9523 49.9003 5.96015 49.8667 5.96043C49.7988 5.96624 49.7308 5.95006 49.6728 5.91427C49.6148 5.87849 49.5697 5.82497 49.5442 5.76158L48.8876 4.36188H46.2185L45.5697 5.76939C45.5439 5.83033 45.4996 5.88156 45.4431 5.91585C45.3866 5.95013 45.3208 5.96573 45.255 5.96043C45.2202 5.96571 45.1845 5.96269 45.151 5.95162C45.1175 5.94056 45.087 5.92176 45.0621 5.89672C45.0371 5.87169 45.0184 5.84113 45.0074 5.8075C44.9964 5.77387 44.9934 5.73811 44.9986 5.7031C44.9954 5.59991 45.0153 5.49733 45.0569 5.40289L47.2947 0.724212C47.3608 0.583852 47.4462 0.509766 47.5511 0.509766C47.6118 0.515192 47.6696 0.538412 47.7173 0.57654C47.765 0.614668 47.8004 0.666027 47.8192 0.724212L50.0493 5.40289C50.0916 5.49733 50.1141 5.59953 50.1153 5.7031C50.1152 5.73522 50.1086 5.76697 50.0959 5.79646C50.0832 5.82594 50.0647 5.85254 50.0415 5.87465V5.87465ZM47.5511 1.465L46.4983 3.76144H48.6156L47.5511 1.465Z" fill="#535353"/>
<path d="M59.3842 5.87465C59.3633 5.90115 59.3368 5.92261 59.3065 5.93745C59.2763 5.9523 59.2431 5.96015 59.2094 5.96043C59.1415 5.96624 59.0736 5.95006 59.0156 5.91427C58.9575 5.87849 58.9124 5.82497 58.8869 5.76158L58.2304 4.36188H55.5613L54.9125 5.76939C54.8866 5.83033 54.8423 5.88156 54.7858 5.91585C54.7294 5.95013 54.6636 5.96573 54.5978 5.96043C54.5629 5.96571 54.5273 5.96269 54.4938 5.95162C54.4603 5.94056 54.4298 5.92176 54.4049 5.89672C54.3799 5.87169 54.3612 5.84113 54.3501 5.8075C54.3391 5.77387 54.3361 5.73811 54.3414 5.7031C54.3382 5.59991 54.3581 5.49733 54.3997 5.40289L56.6375 0.724212C56.7035 0.583852 56.789 0.509766 56.8978 0.509766C57.0066 0.509766 57.0959 0.583852 57.162 0.724212L59.392 5.40289C59.4363 5.4967 59.4588 5.59932 59.4581 5.7031C59.4586 5.73532 59.4524 5.7673 59.4396 5.79688C59.4269 5.82647 59.408 5.85299 59.3842 5.87465V5.87465ZM56.8978 1.465L55.841 3.76144H57.9584L56.8978 1.465Z" fill="#535353"/>
<path d="M67.6175 5.84365H64.0587C63.8373 5.84365 63.7285 5.75008 63.7285 5.55123C63.7451 5.43042 63.798 5.31754 63.88 5.22762L67.1047 1.20006H64.4162C64.1831 1.20006 64.0704 1.10649 64.0704 0.907645C64.0704 0.708801 64.1831 0.607422 64.4162 0.607422H67.6175C67.8506 0.607422 67.9672 0.708801 67.9672 0.907645C67.9523 1.02669 67.8991 1.1376 67.8157 1.22345L64.591 5.25101H67.6175C67.8506 5.25101 67.9672 5.35239 67.9672 5.55123C67.9672 5.75008 67.8506 5.84365 67.6175 5.84365Z" fill="#535353"/>
<path d="M75.7835 5.84363H72.9979C72.7337 5.84363 72.6094 5.72665 72.6094 5.49272V0.950508C72.6094 0.716574 72.7337 0.599609 72.9979 0.599609H75.7835C76.0166 0.599609 76.1332 0.700976 76.1332 0.89982C76.1332 1.09866 76.0166 1.19224 75.7835 1.19224H73.3204C73.303 1.19091 73.2856 1.1935 73.2694 1.1998C73.2532 1.20611 73.2385 1.21599 73.2266 1.22871C73.2147 1.24142 73.2058 1.25665 73.2005 1.27328C73.1952 1.28991 73.1937 1.3075 73.196 1.3248V2.83757H75.4533C75.6864 2.83757 75.7991 2.93895 75.7991 3.1378C75.7991 3.33664 75.6864 3.43801 75.4533 3.43801H73.196V5.12622C73.1934 5.14322 73.1948 5.1606 73.2001 5.17696C73.2054 5.19331 73.2145 5.20818 73.2266 5.22034C73.2387 5.2325 73.2535 5.24162 73.2698 5.24695C73.2861 5.25227 73.3034 5.25366 73.3204 5.25099H75.7835C76.0166 5.25099 76.1332 5.35237 76.1332 5.55121C76.1332 5.75006 76.0166 5.84363 75.7835 5.84363Z" fill="#535353"/>
<path d="M30.5647 3.64062C30.5943 3.60711 30.617 3.56797 30.6313 3.52551C30.6457 3.48306 30.6514 3.43814 30.6481 3.39343C30.6449 3.34872 30.6327 3.30512 30.6124 3.26521C30.592 3.2253 30.5639 3.18988 30.5297 3.16106C30.3858 3.07288 30.247 2.97655 30.114 2.87254C29.5468 2.43586 28.999 1.9719 28.4512 1.51183C27.852 1.06755 27.1327 0.816049 26.3882 0.790527C25.6521 0.810251 24.941 1.06268 24.3563 1.51183C23.7851 1.9719 23.2412 2.43586 22.6896 2.87254C22.1895 3.29934 21.5653 3.55237 20.9102 3.59384C20.2614 3.555 19.6438 3.30132 19.1541 2.87254C18.5947 2.43586 18.0391 1.9719 17.4874 1.51183C16.8947 1.06655 16.18 0.814756 15.44 0.790527C14.7012 0.808617 13.9871 1.06113 13.4003 1.51183C12.8253 1.9719 12.2814 2.43586 11.7297 2.87254C11.2313 3.29953 10.6082 3.55265 9.9542 3.59384C9.30816 3.55331 8.69355 3.29974 8.20591 2.87254C7.6348 2.43586 7.08698 1.9719 6.53918 1.51183C5.94009 1.07232 5.22191 0.826179 4.48008 0.806126C3.74266 0.825034 3.03008 1.07751 2.44429 1.52742C1.87707 1.98749 1.32537 2.45146 0.781456 2.88814C0.575197 3.04311 0.35694 3.18131 0.128761 3.30142C0.0606461 3.35468 0.0157285 3.43233 0.00341548 3.5181C-0.00889757 3.60387 0.0123568 3.6911 0.0627212 3.76149C0.119399 3.83671 0.199608 3.89068 0.290482 3.91471C0.381357 3.93875 0.477627 3.93148 0.563891 3.89406C0.737728 3.80148 0.90518 3.69727 1.06508 3.58214C1.61288 3.14156 2.1529 2.6893 2.73179 2.22533C3.21822 1.79673 3.83377 1.54414 4.48008 1.50792C5.14049 1.54881 5.77066 1.80015 6.27889 2.22533C6.82539 2.688 7.37318 3.14026 7.92228 3.58214C8.50487 4.03623 9.21679 4.29168 9.9542 4.31123C10.699 4.28662 11.418 4.03201 12.0133 3.58214C12.5728 3.14156 13.1205 2.6893 13.68 2.22533C14.1717 1.79792 14.7905 1.54569 15.44 1.50792C16.0982 1.5533 16.7258 1.80415 17.2349 2.22533C17.7827 2.6893 18.3227 3.14156 18.8744 3.58214C19.4575 4.03799 20.1712 4.2936 20.9102 4.31123C21.6553 4.28866 22.375 4.03384 22.9693 3.58214C23.5249 3.14156 24.0688 2.6893 24.6399 2.22533C25.1263 1.79673 25.7419 1.54414 26.3882 1.50792C27.0441 1.546 27.6711 1.7917 28.1792 2.20973C28.7231 2.6737 29.2826 3.12597 29.8304 3.56654C29.9081 3.62502 29.9858 3.67571 30.0596 3.7264C30.1412 3.77075 30.2353 3.78641 30.3269 3.77086C30.4184 3.75532 30.5021 3.70946 30.5647 3.64062V3.64062Z" fill="#535353"/>
<path d="M30.5647 8.604C30.5943 8.57049 30.617 8.53134 30.6313 8.48888C30.6457 8.44642 30.6514 8.40152 30.6481 8.35681C30.6449 8.3121 30.6327 8.26849 30.6124 8.22858C30.592 8.18867 30.5639 8.15325 30.5297 8.12443C30.3849 8.0376 30.246 7.94122 30.114 7.83592C29.5468 7.40314 28.999 6.93527 28.4512 6.4752C27.852 6.03093 27.1327 5.77943 26.3882 5.75391C25.6521 5.77363 24.941 6.02606 24.3563 6.4752C23.7851 6.93527 23.2412 7.40314 22.6896 7.83592C22.1904 8.26418 21.5657 8.51742 20.9102 8.55721C20.261 8.52014 19.6429 8.26624 19.1541 7.83592C18.5947 7.40314 18.0391 6.93527 17.4874 6.4752C16.8947 6.02993 16.18 5.77813 15.44 5.75391C14.7012 5.772 13.9871 6.02451 13.4003 6.4752C12.8253 6.93527 12.2814 7.40314 11.7297 7.83592C11.2323 8.26464 10.6087 8.518 9.9542 8.55721C9.30776 8.51843 8.69261 8.26464 8.20591 7.83592C7.6348 7.40314 7.08698 6.93527 6.53918 6.4752C5.94193 6.03013 5.22359 5.7785 4.48008 5.75391C3.74266 5.77281 3.03008 6.02529 2.44429 6.4752C1.87707 6.93527 1.32537 7.40314 0.781456 7.83592C0.575197 7.99089 0.35694 8.12909 0.128761 8.2492C0.0606461 8.30246 0.0157285 8.38011 0.00341548 8.46588C-0.00889757 8.55165 0.0123568 8.63888 0.0627212 8.70927C0.118953 8.78506 0.19915 8.83945 0.290198 8.86353C0.381245 8.88761 0.47774 8.87996 0.563891 8.84183C0.736864 8.74918 0.904231 8.64633 1.06508 8.53382C1.61288 8.08935 2.1529 7.64097 2.73179 7.1731C3.21938 6.74695 3.83451 6.49591 4.48008 6.45961C5.13951 6.50177 5.76893 6.75143 6.27889 7.1731C6.82669 7.64097 7.37448 8.08935 7.92228 8.53382C8.50652 8.98436 9.21768 9.23816 9.9542 9.25901C10.6983 9.23428 11.417 8.98118 12.0133 8.53382C12.5728 8.08935 13.1205 7.64097 13.68 7.1731C14.173 6.74836 14.7913 6.49771 15.44 6.45961C16.0975 6.50515 16.7246 6.75446 17.2349 7.1731C17.7827 7.64097 18.3227 8.08935 18.8744 8.53382C19.4587 8.98706 20.1719 9.24113 20.9102 9.25901C21.6546 9.23604 22.3738 8.98276 22.9693 8.53382C23.5249 8.08935 24.0688 7.64097 24.6399 7.1731C25.1275 6.74695 25.7426 6.49591 26.3882 6.45961C27.0476 6.50177 27.677 6.75143 28.187 7.1731C28.7309 7.64097 29.2904 8.08935 29.8382 8.53382L30.0674 8.68978C30.148 8.73285 30.2406 8.74779 30.3306 8.73227C30.4207 8.71674 30.503 8.67162 30.5647 8.604V8.604Z" fill="#535353"/>
<path d="M30.565 13.583C30.5946 13.5498 30.6172 13.511 30.6315 13.4689C30.6457 13.4267 30.6514 13.3821 30.6482 13.3377C30.6449 13.2933 30.6328 13.25 30.6125 13.2105C30.5922 13.1709 30.5641 13.1358 30.53 13.1073C30.3861 13.0192 30.2473 12.9228 30.1143 12.8188C29.5471 12.3821 28.9993 11.9182 28.4515 11.4581C27.8534 11.0113 27.1337 10.7583 26.3885 10.7329C25.6517 10.7522 24.9401 11.0061 24.3566 11.4581C23.7855 11.9182 23.2416 12.3821 22.6899 12.8188C22.1896 13.2447 21.5653 13.4964 20.9105 13.5362C20.2621 13.4991 19.6444 13.2467 19.1545 12.8188C18.595 12.3821 18.0394 11.9182 17.4877 11.4581C16.8962 11.0101 16.181 10.7568 15.4403 10.7329C14.7011 10.7521 13.987 11.006 13.4006 11.4581C12.8256 11.9182 12.2817 12.3821 11.73 12.8188C11.2314 13.2449 10.6082 13.4967 9.95454 13.5362C9.30883 13.4974 8.6941 13.2451 8.20624 12.8188C7.63513 12.3821 7.08732 11.9182 6.53952 11.4581C5.94343 11.0103 5.22463 10.7571 4.48042 10.7329C3.74216 10.7508 3.0289 11.0049 2.44463 11.4581C1.8774 11.9182 1.32571 12.3821 0.781794 12.8188C0.576445 12.974 0.358062 13.111 0.1291 13.2282C0.0607165 13.2822 0.0157 13.3605 0.0033985 13.4469C-0.00890299 13.5333 0.0124643 13.6212 0.0630599 13.6922C0.119822 13.7673 0.20026 13.8209 0.291272 13.8443C0.382284 13.8676 0.478495 13.8594 0.56423 13.8208C0.737203 13.7282 0.90457 13.6253 1.06542 13.5128C1.61322 13.0723 2.15324 12.62 2.73212 12.1521C3.21972 11.726 3.83485 11.4749 4.48042 11.4386C5.13985 11.4808 5.76926 11.7304 6.27922 12.1521C6.82573 12.62 7.37352 13.0735 7.92262 13.5128C8.50521 13.9669 9.21713 14.2224 9.95454 14.2419C10.6993 14.2173 11.4184 13.9627 12.0136 13.5128C12.5731 13.0723 13.1209 12.62 13.6803 12.1521C14.1734 11.7274 14.7916 11.4767 15.4403 11.4386C16.0978 11.4842 16.725 11.7335 17.2352 12.1521C17.783 12.62 18.323 13.0723 18.8747 13.5128C19.4578 13.9687 20.1716 14.2243 20.9105 14.2419C21.6557 14.2193 22.3754 13.9645 22.9696 13.5128C23.5252 13.0723 24.0691 12.62 24.6402 12.1521C25.1278 11.726 25.743 11.4749 26.3885 11.4386C27.0452 11.4824 27.6717 11.732 28.1795 12.1521C28.7235 12.62 29.2829 13.0723 29.8307 13.5128L30.0599 13.6688C30.1414 13.7138 30.2357 13.7299 30.3274 13.7143C30.4191 13.6987 30.5028 13.6524 30.565 13.583V13.583Z" fill="#535353"/>
<path d="M30.5647 18.5576C30.5943 18.5241 30.617 18.485 30.6313 18.4425C30.6457 18.4 30.6514 18.3551 30.6481 18.3104C30.6449 18.2657 30.6327 18.2221 30.6124 18.1822C30.592 18.1423 30.5639 18.1069 30.5297 18.078C30.3858 17.9899 30.247 17.8935 30.114 17.7895C29.5468 17.3529 28.999 16.8889 28.4512 16.4288C27.852 15.9845 27.1327 15.733 26.3882 15.7075C25.6521 15.7272 24.941 15.9797 24.3563 16.4288C23.7851 16.8889 23.2412 17.3529 22.6896 17.7895C22.1895 18.2163 21.5653 18.4694 20.9102 18.5108C20.2614 18.472 19.6438 18.2183 19.1541 17.7895C18.5947 17.3529 18.0391 16.8889 17.4874 16.4288C16.8947 15.9835 16.18 15.7317 15.44 15.7075C14.7012 15.7256 13.9871 15.9781 13.4003 16.4288C12.8253 16.8889 12.2814 17.3529 11.7297 17.7895C11.2313 18.2165 10.6082 18.4696 9.9542 18.5108C9.30816 18.4703 8.69355 18.2167 8.20591 17.7895C7.6348 17.3529 7.08698 16.8889 6.53918 16.4288C5.94193 15.9837 5.22359 15.7321 4.48008 15.7075C3.74266 15.7264 3.03008 15.9789 2.44429 16.4288C1.87707 16.8889 1.32537 17.3529 0.781456 17.7895C0.575197 17.9445 0.35694 18.0827 0.128761 18.2028C0.0606461 18.2561 0.0157285 18.3337 0.00341548 18.4195C-0.00889757 18.5053 0.0123568 18.5925 0.0627212 18.6629C0.119483 18.738 0.199921 18.7916 0.290933 18.815C0.381945 18.8383 0.478156 18.8301 0.563891 18.7915C0.737682 18.7003 0.905139 18.5974 1.06508 18.4835C1.61288 18.043 2.1529 17.5907 2.73179 17.1267C3.21716 16.6953 3.83283 16.4399 4.48008 16.4015C5.14049 16.4424 5.77066 16.6937 6.27889 17.1189C6.82539 17.5816 7.37318 18.0339 7.92228 18.4757C8.50487 18.9298 9.21679 19.1853 9.9542 19.2048C10.699 19.1802 11.418 18.9256 12.0133 18.4757C12.5728 18.0352 13.1205 17.5829 13.68 17.1189C14.1717 16.6915 14.7905 16.4393 15.44 16.4015C16.0982 16.4469 16.7258 16.6977 17.2349 17.1189C17.7827 17.5829 18.3227 18.0352 18.8744 18.4757C19.4575 18.9316 20.1712 19.1872 20.9102 19.2048C21.6553 19.1823 22.375 18.9274 22.9693 18.4757C23.5249 18.0352 24.0688 17.5829 24.6399 17.1189C25.1263 16.6903 25.7419 16.4377 26.3882 16.4015C27.0486 16.4424 27.6788 16.6937 28.187 17.1189C28.7309 17.5829 29.2904 18.0352 29.8382 18.4757C29.9159 18.5342 29.9935 18.5849 30.0674 18.6317C30.1468 18.6762 30.2386 18.693 30.3286 18.6796C30.4185 18.6662 30.5016 18.6233 30.5647 18.5576V18.5576Z" fill="#535353"/>
<path d="M30.5647 23.5288C30.5943 23.4953 30.617 23.4561 30.6313 23.4137C30.6457 23.3712 30.6514 23.3263 30.6481 23.2816C30.6449 23.2369 30.6327 23.1933 30.6124 23.1534C30.592 23.1135 30.5639 23.0781 30.5297 23.0492C30.3849 22.9624 30.246 22.866 30.114 22.7607C29.5468 22.3279 28.999 21.8601 28.4512 21.4C27.852 20.9557 27.1327 20.7042 26.3882 20.6787C25.6521 20.6984 24.941 20.9509 24.3563 21.4C23.7851 21.8601 23.2412 22.3279 22.6896 22.7607C22.1904 23.189 21.5657 23.4422 20.9102 23.482C20.261 23.4449 19.6429 23.191 19.1541 22.7607C18.5947 22.3279 18.0391 21.8601 17.4874 21.4C16.8947 20.9547 16.18 20.7029 15.44 20.6787C14.7012 20.6968 13.9871 20.9493 13.4003 21.4C12.8253 21.8601 12.2814 22.3279 11.7297 22.7607C11.2323 23.1894 10.6087 23.4428 9.9542 23.482C9.30776 23.4432 8.69261 23.1894 8.20591 22.7607C7.6348 22.3279 7.08698 21.8601 6.53918 21.4C5.94055 20.9591 5.22233 20.7116 4.48008 20.6904C3.74266 20.7093 3.03008 20.9618 2.44429 21.4117C1.87707 21.8718 1.32537 22.3396 0.781456 22.7724C0.575197 22.9274 0.35694 23.0656 0.128761 23.1857C0.0606461 23.239 0.0157285 23.3166 0.00341548 23.4024C-0.00889757 23.4882 0.0123568 23.5754 0.0627212 23.6458C0.118953 23.7216 0.19915 23.776 0.290198 23.8C0.381245 23.8241 0.47774 23.8165 0.563891 23.7783C0.736864 23.6857 0.904231 23.5828 1.06508 23.4703C1.61288 23.0259 2.1529 22.5775 2.73179 22.1096C3.21938 21.6835 3.83451 21.4324 4.48008 21.3961C5.13951 21.4383 5.76893 21.6879 6.27889 22.1096C6.82669 22.5775 7.37448 23.0259 7.92228 23.4703C8.50652 23.9209 9.21768 24.1747 9.9542 24.1955C10.6983 24.1708 11.417 23.9177 12.0133 23.4703C12.5728 23.0259 13.1205 22.5775 13.68 22.1096C14.173 21.6849 14.7913 21.4342 15.44 21.3961C16.0975 21.4417 16.7246 21.691 17.2349 22.1096C17.7827 22.5775 18.3227 23.0259 18.8744 23.4703C19.4587 23.9236 20.1719 24.1776 20.9102 24.1955C21.6546 24.1725 22.3738 23.9193 22.9693 23.4703C23.5249 23.0259 24.0688 22.5775 24.6399 22.1096C25.1275 21.6835 25.7426 21.4324 26.3882 21.3961C27.0476 21.4383 27.677 21.6879 28.187 22.1096C28.7309 22.5775 29.2904 23.0259 29.8382 23.4703L30.0674 23.6263C30.1492 23.668 30.2426 23.681 30.3327 23.6634C30.4228 23.6457 30.5045 23.5984 30.5647 23.5288V23.5288Z" fill="#535353"/>
<path d="M30.565 28.4883C30.5947 28.4548 30.6174 28.4156 30.6317 28.3732C30.646 28.3307 30.6517 28.2858 30.6485 28.2411C30.6452 28.1964 30.6331 28.1528 30.6127 28.1129C30.5924 28.0729 30.5643 28.0375 30.53 28.0087C30.3844 27.9232 30.2454 27.8268 30.1143 27.7202C29.5471 27.2874 28.9993 26.8195 28.4515 26.3634C27.8534 25.9166 27.1337 25.6636 26.3885 25.6382C25.6517 25.6574 24.9401 25.9114 24.3566 26.3634C23.7855 26.8195 23.2416 27.2874 22.6899 27.7202C22.1907 28.1485 21.566 28.4017 20.9105 28.4415C20.2614 28.4044 19.6432 28.1505 19.1545 27.7202C18.595 27.2874 18.0394 26.8195 17.4877 26.3634C16.8962 25.9153 16.181 25.662 15.4403 25.6382C14.7011 25.6574 13.987 25.9113 13.4006 26.3634C12.8256 26.8195 12.2817 27.2874 11.73 27.7202C11.2326 28.1489 10.609 28.4023 9.95454 28.4415C9.3081 28.4027 8.69295 28.1489 8.20624 27.7202C7.63513 27.2874 7.08732 26.8195 6.53952 26.3634C5.94344 25.9156 5.22463 25.6624 4.48042 25.6382C3.74216 25.6561 3.0289 25.9101 2.44463 26.3634C1.8774 26.8195 1.32571 27.2874 0.781794 27.7202C0.57647 27.8765 0.358098 28.0148 0.1291 28.1335C0.0607165 28.1874 0.0157 28.2658 0.0033985 28.3522C-0.00890299 28.4386 0.0124643 28.5264 0.0630599 28.5974C0.119822 28.6726 0.20026 28.7262 0.291272 28.7495C0.382284 28.7729 0.478495 28.7646 0.56423 28.7261C0.737203 28.6335 0.90457 28.5306 1.06542 28.4181C1.61322 27.9775 2.15324 27.5252 2.73212 27.0574C3.21972 26.6312 3.83485 26.3802 4.48042 26.3439C5.13985 26.386 5.76926 26.6357 6.27922 27.0574C6.82573 27.5252 7.37352 27.9788 7.92262 28.4181C8.50521 28.8722 9.21713 29.1276 9.95454 29.1472C10.6993 29.1226 11.4184 28.868 12.0136 28.4181C12.5731 27.9775 13.1209 27.5252 13.6803 27.0574C14.1734 26.6326 14.7916 26.382 15.4403 26.3439C16.0978 26.3894 16.725 26.6387 17.2352 27.0574C17.783 27.5252 18.323 27.9775 18.8747 28.4181C19.4578 28.8739 20.1716 29.1296 20.9105 29.1472C21.6557 29.1246 22.3754 28.8698 22.9696 28.4181C23.5252 27.9775 24.0691 27.5252 24.6402 27.0574C25.1278 26.6312 25.743 26.3802 26.3885 26.3439C27.048 26.386 27.6774 26.6357 28.1873 27.0574C28.7312 27.5252 29.2907 27.9775 29.8385 28.4181L30.0677 28.5741C30.1483 28.6171 30.241 28.6321 30.331 28.6165C30.421 28.601 30.5033 28.5559 30.565 28.4883V28.4883Z" fill="#535353"/>
<path d="M53.4325 19.6141H46.0858C45.029 19.6375 44.6793 19.9611 44.6599 20.8735V25.3455C44.6793 26.2813 45.0251 26.5815 46.0858 26.601H53.4325C54.4892 26.5815 54.8389 26.2813 54.8544 25.3455V20.8735C54.8544 19.9611 54.4892 19.6375 53.4325 19.6141ZM47.2552 27.1312C46.1694 27.7024 45.0056 28.1097 43.8013 28.3399C43.4789 28.4062 43.3584 28.5855 43.3545 28.8194C43.3574 28.8962 43.3704 28.9723 43.3934 29.0456V29.0456C43.4944 29.3614 43.6576 29.4823 43.914 29.4901C43.9806 29.4917 44.0471 29.4851 44.1121 29.4706C45.496 29.1962 46.8255 28.6957 48.0477 27.989V27.989C48.1219 27.9437 48.184 27.881 48.2286 27.8063C48.2733 27.7315 48.2992 27.6471 48.3041 27.5601V27.5601C48.3008 27.4126 48.2394 27.2723 48.1332 27.1702C48.0822 27.1114 48.0188 27.0647 47.9476 27.0337C47.8763 27.0027 47.799 26.988 47.7214 26.9909V26.9909C47.5562 26.991 47.3945 27.0384 47.2552 27.1273V27.1312ZM55.8024 28.3399C54.5242 28.0928 53.2853 27.6731 52.1193 27.0922C52.0136 27.0355 51.897 27.0023 51.7774 26.9948V26.9948C51.69 26.9957 51.6039 27.0162 51.5252 27.0546C51.4466 27.093 51.3775 27.1485 51.3229 27.217V27.217C51.2333 27.3171 51.1811 27.4452 51.1752 27.5796V27.5796C51.1766 27.6613 51.2005 27.7411 51.2444 27.81C51.2884 27.8788 51.3505 27.9341 51.4239 27.9695V27.9695C52.6593 28.6992 54.0144 29.2022 55.4256 29.455V29.455C55.4848 29.4639 55.545 29.4639 55.6043 29.455V29.455C55.8918 29.455 56.0588 29.3263 56.1521 28.9637C56.1605 28.9108 56.1605 28.8568 56.1521 28.8038V28.8038C56.1645 28.6927 56.134 28.581 56.0667 28.4917C55.9995 28.4025 55.9007 28.3426 55.7908 28.3243V28.3243L55.8024 28.3399ZM36.812 27.1897C36.812 28.3009 37.2705 28.6869 38.3894 28.7103H41.1556C42.2978 28.6869 42.7096 28.3009 42.7368 27.1897V24.0433C42.7174 22.9321 42.3017 22.5461 41.1594 22.5227H38.3932C37.2743 22.5461 36.8392 22.9321 36.8159 24.0433V27.1897H36.812ZM40.8525 27.5796H38.6691C38.4127 27.5796 38.2806 27.5796 38.133 27.4743C38.0164 27.3418 38.0358 27.1897 38.028 26.9246V24.1953C38.028 23.9887 38.0281 23.8328 38.1446 23.7119C38.2767 23.5988 38.4476 23.5949 38.7429 23.591H40.8409C41.1284 23.591 41.2838 23.591 41.4198 23.6807C41.5519 23.8055 41.5324 23.9575 41.5363 24.1953V24.246V26.9285C41.5363 27.1741 41.5363 27.3184 41.4236 27.4665C41.2916 27.5835 41.1284 27.5796 40.8409 27.5835L40.8525 27.5796ZM52.9469 25.7315H46.5831C46.4027 25.757 46.2189 25.7286 46.0547 25.6496V25.6496C45.9265 25.5405 45.9342 25.3962 45.9304 25.1896V24.4488H53.5918V25.1896C53.5918 25.3962 53.5918 25.5288 53.4908 25.6457C53.3665 25.7471 53.2344 25.7276 52.9974 25.7315H52.943H52.9469ZM46.0508 23.6768H45.9381V22.4564H53.5995V23.6768H46.0508ZM45.9381 21.6767V21.0255C45.9381 20.8189 45.9381 20.6785 46.0469 20.5538C46.179 20.4563 46.3228 20.4641 46.5908 20.4602H52.9507C53.2188 20.4602 53.3664 20.4602 53.4946 20.5538C53.619 20.6785 53.5957 20.8189 53.5995 21.0255V21.6767H45.9381ZM37.3326 20.5889H42.2434C42.5387 20.5889 42.663 20.3978 42.6746 20.004C42.6746 19.6375 42.5348 19.4231 42.2434 19.4192H37.3248C37.0335 19.4192 36.9014 19.6375 36.8936 20.004C36.8936 20.3939 37.0296 20.585 37.3248 20.5889H37.3326ZM54.0891 14.8848H45.4797C44.5045 14.9043 44.1588 15.1889 44.1393 16.0544V17.3333C44.1393 18.2261 44.5278 18.5497 45.4797 18.5692H54.0891C55.0526 18.5497 55.41 18.2261 55.4294 17.3333V16.0544C55.4294 15.1889 55.0603 14.9043 54.0891 14.8848ZM53.5918 17.7271H51.9018V15.7269H53.7161C53.9104 15.7269 54.0347 15.7269 54.1396 15.8322C54.2328 15.9492 54.2134 16.0661 54.2212 16.2494V17.1812C54.2212 17.3957 54.2212 17.536 54.1046 17.6452C53.9764 17.7427 53.8404 17.7232 53.5918 17.7271V17.7271ZM48.615 17.7271V15.7269H50.8023V17.7271H48.615ZM47.4067 15.7269H47.5155V17.7271H45.8371C45.7036 17.7416 45.5687 17.7173 45.4486 17.6569V17.6569C45.4052 17.6151 45.3722 17.5637 45.3519 17.5069C45.3317 17.4501 45.3249 17.3893 45.3321 17.3294V17.3294V16.1597C45.3224 16.0941 45.3275 16.0271 45.347 15.9637C45.3665 15.9002 45.3999 15.842 45.4447 15.7932V15.7932C45.5634 15.7284 45.6988 15.7012 45.8332 15.7152H47.3873L47.4067 15.7269ZM37.3054 17.4853H42.2162C42.5115 17.4853 42.6358 17.2904 42.6474 16.9005C42.6474 16.534 42.5076 16.3196 42.2162 16.3157H37.3248C37.0335 16.3157 36.9014 16.534 36.8936 16.9005C36.8936 17.2904 37.0296 17.4776 37.3248 17.4853H37.3054ZM42.7757 13.1264H36.4818C36.1671 13.1264 36.0195 13.3681 36.0078 13.7736C36.0078 14.183 36.1593 14.374 36.4818 14.3818H42.7951C43.0942 14.3818 43.238 14.183 43.2496 13.7736C43.2496 13.3837 43.0826 13.1264 42.7951 13.1264H42.7757ZM55.7985 10.4985H50.2778V9.62907C50.2778 9.34055 50.068 9.20799 49.6328 9.19629C49.2171 9.19629 49.0074 9.34055 49.0074 9.62907V10.4985H44.0072C43.7547 10.4985 43.6187 10.6818 43.6187 10.9976C43.6187 11.3173 43.7586 11.5161 44.0072 11.5161H49.0074V12.8223H44.7881C44.5861 12.8223 44.4501 13.0055 44.4424 13.2979C44.4424 13.5943 44.5939 13.7931 44.7881 13.7931H54.8039C54.9943 13.7931 55.1419 13.5943 55.1458 13.2979C55.1458 13.0055 55.0021 12.8223 54.8039 12.8223H50.2778V11.5161H55.8179C56.0627 11.5161 56.2065 11.3173 56.2065 10.9742C56.2065 10.6818 56.0744 10.5024 55.8179 10.4985H55.7985ZM42.2007 10.0229H37.2588C36.9868 10.0229 36.8353 10.2256 36.8276 10.5843C36.8276 10.9937 36.9868 11.1886 37.2588 11.1925H42.2123C42.5348 11.1925 42.6552 10.9976 42.6669 10.5843C42.6669 10.2217 42.5348 10.0307 42.2123 10.0229H42.2007ZM58.1024 18.6589C58.1024 19.0488 58.2772 19.2866 58.5336 19.2866H60.2703V28.7103C60.2703 28.9715 60.5189 29.1781 60.9385 29.1859C61.3853 29.1859 61.6067 28.9793 61.6067 28.7103V19.2866H65.1344V27.8642C65.1344 28.1449 65.3015 28.2814 65.756 28.297C66.2145 28.297 66.3777 28.1449 66.3854 27.8642V19.2866H69.8004V27.8408C69.8004 28.1254 69.9481 28.2502 70.4065 28.2697C70.8649 28.2697 71.0437 28.1098 71.0514 27.8408V19.2866H74.886V26.7569C74.9019 26.8854 74.8896 27.0159 74.85 27.1391C74.8104 27.2623 74.7445 27.3754 74.6568 27.4704C74.4105 27.6335 74.1146 27.7039 73.8215 27.6693V27.6693C73.3887 27.6605 72.9573 27.6162 72.5316 27.5367H72.5083H72.4345C72.2092 27.5367 72.046 27.6732 71.9839 28.0475V28.1878C71.9839 28.5387 72.147 28.6557 72.4617 28.7298C73.0252 28.8128 73.5939 28.8558 74.1634 28.8584V28.8584C74.7104 28.9086 75.2583 28.7712 75.7174 28.4685V28.4685C75.8893 28.3033 76.0211 28.1007 76.1027 27.8762C76.1842 27.6518 76.2132 27.4116 76.1875 27.1741V19.2866H77.7921C78.0485 19.2866 78.2156 19.0488 78.2233 18.6589C78.2233 18.2495 78.064 18.0585 77.7921 18.0546H76.1875V11.9957C76.1642 10.752 75.562 10.288 74.245 10.2607H62.3177C61.5407 10.2607 61.0667 10.4011 60.7637 10.6506C60.5908 10.8228 60.4583 11.0314 60.3756 11.2614C60.293 11.4913 60.2623 11.7368 60.2858 11.9801V11.9801V18.039H58.5492C58.285 18.039 58.1296 18.2573 58.1179 18.6433L58.1024 18.6589ZM71.2263 18.0546H71.0514V11.4265H74.0235C74.3615 11.4265 74.5752 11.4265 74.7423 11.6019C74.8682 11.7779 74.9224 11.9954 74.8938 12.2101V12.2101V18.0585L71.2263 18.0546ZM66.3854 18.0546V11.4265H69.8004V18.0546H66.3854ZM62.2944 11.4265H65.1344V18.0546H61.6067V12.1439C61.5908 12.0443 61.5968 11.9424 61.6243 11.8454C61.6519 11.7484 61.7002 11.6586 61.766 11.5824V11.5824C61.9409 11.446 61.9292 11.4343 62.2944 11.4304V11.4265ZM100.166 26.9714C100.438 26.9714 100.605 27.1702 100.617 27.5991C100.617 27.989 100.438 28.1995 100.166 28.2034H81.4985C81.2304 28.2034 81.0828 28.0124 81.0672 27.5991C81.0672 27.1624 81.2304 26.9792 81.4985 26.9714H90.5119V21.123H84.2686C83.9927 21.123 83.8062 20.9125 83.7946 20.5187C83.7946 20.1288 83.9927 19.9183 84.2686 19.9144H90.5119V15.0329H84.828L84.7814 15.1304C84.1023 16.5604 83.2685 17.9111 82.2949 19.158C82.2352 19.2332 82.1605 19.2949 82.0755 19.3392C81.9905 19.3836 81.8971 19.4095 81.8015 19.4153C81.6142 19.4135 81.4348 19.3395 81.3003 19.2087V19.2087C81.2256 19.1568 81.1639 19.0883 81.1201 19.0085C81.0763 18.9286 81.0515 18.8397 81.0478 18.7486V18.7486C81.0572 18.563 81.1283 18.3859 81.2498 18.2456V18.2456C83.0379 16.0103 84.3378 13.4226 85.065 10.6506C85.0902 10.5275 85.1595 10.4179 85.2597 10.3424C85.3599 10.267 85.4841 10.231 85.6089 10.2412V10.2412C85.6994 10.2442 85.7894 10.2572 85.877 10.2802V10.2802C86.2267 10.3738 86.4092 10.5999 86.4092 10.826C86.4037 10.8834 86.3907 10.9398 86.3704 10.9937V10.9937C86.1143 11.8732 85.8056 12.7365 85.4458 13.5787L85.3447 13.8204H90.5119V9.82402C90.5119 9.5394 90.7528 9.33666 91.1996 9.32496C91.6736 9.32496 91.9144 9.5394 91.9144 9.82402V13.8204H99.3777C99.6536 13.8204 99.7895 13.9919 99.809 14.4247C99.809 14.838 99.6458 15.029 99.3777 15.0329H91.9144V19.9105H98.3443C98.6162 19.9105 98.7833 20.1132 98.795 20.5148C98.795 20.9047 98.6162 21.1191 98.3443 21.1191H91.9144V26.9675H100.178L100.166 26.9714ZM105.594 21.8014C104.765 23.79 103.749 25.6948 102.56 27.4899V27.4899C102.416 27.6428 102.331 27.8416 102.319 28.0514V28.0514C102.323 28.1404 102.35 28.2269 102.396 28.3032C102.442 28.3794 102.506 28.4429 102.583 28.488V28.488C102.723 28.5797 102.886 28.631 103.053 28.6362V28.6362C103.166 28.6314 103.277 28.6 103.376 28.5445C103.476 28.4889 103.56 28.4109 103.624 28.3165C104.857 26.4259 105.93 24.4343 106.829 22.3629V22.3629C106.861 22.2793 106.878 22.191 106.88 22.1016C106.877 21.9744 106.833 21.8515 106.755 21.7516C106.676 21.6517 106.567 21.5802 106.445 21.548V21.548C106.337 21.4994 106.221 21.4741 106.103 21.4739V21.4739C105.994 21.4674 105.887 21.4955 105.795 21.5544C105.704 21.6133 105.633 21.6998 105.594 21.8014V21.8014ZM119.091 20.8969H115.326V16.998H121.515C121.826 16.998 121.997 16.8108 122.008 16.3937C122.008 15.9531 121.834 15.801 121.515 15.7854H115.314V11.828L115.458 11.8008C117.118 11.5228 118.758 11.14 120.369 10.6545V10.6545C120.496 10.6185 120.609 10.5413 120.688 10.4348C120.767 10.3284 120.809 10.1987 120.808 10.0657V10.0657C120.81 9.96553 120.792 9.86592 120.754 9.77333V9.77333C120.726 9.65657 120.659 9.55332 120.562 9.48194C120.466 9.41055 120.348 9.37565 120.229 9.38344V9.38344C120.136 9.38527 120.043 9.40513 119.957 9.44192V9.44192C116.756 10.5141 112.552 11.1224 109.032 11.3368C108.958 11.3351 108.885 11.3487 108.817 11.3767C108.749 11.4047 108.687 11.4465 108.635 11.4996C108.584 11.5527 108.544 11.6158 108.518 11.685C108.492 11.7543 108.481 11.8282 108.484 11.9021V11.9021C108.487 11.9241 108.487 11.9464 108.484 11.9684V11.9684C108.543 12.3583 108.694 12.5337 109.071 12.5493H109.102C110.61 12.4402 112.23 12.2881 113.869 12.0503L114.071 12.023V15.7659H108.092C107.781 15.7659 107.614 15.957 107.599 16.3742C107.599 16.8108 107.777 16.9629 108.092 16.9785H114.067V20.8774H110.711C110.252 20.8355 109.793 20.9585 109.417 21.2244V21.2244C109.271 21.3838 109.16 21.5727 109.093 21.7786C109.026 21.9844 109.004 22.2023 109.028 22.4175V22.4175V26.8037C109.003 27.0231 109.025 27.2454 109.092 27.4558C109.159 27.6662 109.27 27.8599 109.417 28.0241C109.787 28.3004 110.247 28.4283 110.707 28.3828H119.091C119.548 28.4293 120.006 28.3012 120.373 28.0241V28.0241C120.518 27.8588 120.628 27.665 120.695 27.4549C120.762 27.2448 120.784 27.023 120.761 26.8037V26.8037V22.437C120.785 22.2218 120.762 22.0041 120.695 21.7984C120.628 21.5927 120.518 21.4037 120.373 21.2439V21.2439C120.002 20.9753 119.546 20.8519 119.091 20.8969V20.8969V20.8969ZM118.64 27.217H111.099C110.8 27.217 110.633 27.2404 110.45 27.0961C110.291 26.9207 110.33 26.7491 110.318 26.4723V22.7839C110.318 22.5071 110.295 22.3356 110.458 22.1601C110.637 22.0159 110.804 22.051 111.099 22.0432H118.628C118.939 22.0432 119.114 22.0237 119.297 22.1601C119.468 22.3278 119.444 22.511 119.452 22.7839V26.4723C119.452 26.7452 119.452 26.9285 119.297 27.0961C119.114 27.2326 118.939 27.2053 118.628 27.217H118.64ZM106.231 17.5048C105.328 16.665 104.354 15.9046 103.321 15.2318V15.2318C103.211 15.1634 103.085 15.1258 102.956 15.1226V15.1226C102.844 15.1262 102.735 15.1538 102.635 15.2036C102.535 15.2534 102.447 15.3242 102.377 15.4111C102.28 15.5177 102.224 15.6564 102.222 15.801V15.801C102.222 15.8775 102.24 15.9527 102.275 16.0206C102.311 16.0884 102.361 16.1468 102.424 16.1909C103.441 16.895 104.402 17.6771 105.299 18.5303V18.5303C105.428 18.6454 105.596 18.7079 105.769 18.7057V18.7057C105.974 18.7028 106.169 18.6187 106.313 18.4718V18.4718C106.372 18.4156 106.42 18.348 106.452 18.2729C106.485 18.1979 106.502 18.117 106.503 18.0351V18.0351C106.5 17.9335 106.474 17.834 106.428 17.7436C106.381 17.6533 106.315 17.5744 106.235 17.5126V17.5126L106.231 17.5048ZM103.372 10.0268C103.263 10.1432 103.2 10.2959 103.197 10.4556V10.4556C103.199 10.5321 103.219 10.6071 103.254 10.6747C103.29 10.7423 103.341 10.8007 103.403 10.8455C104.419 11.5383 105.37 12.3212 106.247 13.1849C106.308 13.2488 106.381 13.2995 106.463 13.3337C106.545 13.3679 106.632 13.3849 106.721 13.3837V13.3837C106.814 13.3864 106.908 13.3694 106.995 13.3338C107.082 13.2982 107.16 13.2448 107.226 13.1771V13.1771C107.284 13.1195 107.33 13.0509 107.361 12.9752C107.393 12.8996 107.409 12.8184 107.408 12.7365V12.7365C107.402 12.5368 107.32 12.347 107.179 12.2062C106.31 11.328 105.352 10.5439 104.32 9.8669V9.8669C104.204 9.79278 104.068 9.75479 103.931 9.75773V9.75773C103.822 9.75693 103.714 9.78026 103.614 9.82608C103.515 9.87189 103.427 9.93908 103.356 10.0229L103.372 10.0268Z" fill="#535353"/>
</svg>
